0
SECTION
2
HEADER
9
$INSUNITS
70
6
9
$ACADVER
1
AC1014
9
$HANDSEED
5
FFFF
0
ENDSEC
0
SECTION
2
TABLES
0
TABLE
2
VPORT
5
8
100
AcDbSymbolTable
0
ENDTAB
0
TABLE
2
LTYPE
5
5
100
AcDbSymbolTable
0
LTYPE
5
14
100
AcDbSymbolTableRecord
100
AcDbLinetypeTableRecord
2
BYBLOCK
70
0
0
LTYPE
5
15
100
AcDbSymbolTableRecord
100
AcDbLinetypeTableRecord
2
BYLAYER
70
0
0
ENDTAB
0
TABLE
2
LAYER
5
2
100
AcDbSymbolTable
70
2
0
LAYER
5
50
100
AcDbSymbolTableRecord
100
AcDbLayerTableRecord
2
0
70
0
6
CONTINUOUS
0
ENDTAB
0
TABLE
2
STYLE
5
3
100
AcDbSymbolTable
70
1
0
STYLE
5
11
100
AcDbSymbolTableRecord
100
AcDbTextStyleTableRecord
2
STANDARD
70
0
0
ENDTAB
0
TABLE
2
VIEW
5
6
100
AcDbSymbolTable
70
0
0
ENDTAB
0
TABLE
2
UCS
5
7
100
AcDbSymbolTable
70
0
0
ENDTAB
0
TABLE
2
APPID
5
9
100
AcDbSymbolTable
70
2
0
APPID
5
12
100
AcDbSymbolTableRecord
100
AcDbRegAppTableRecord
2
ACAD
70
0
0
ENDTAB
0
TABLE
2
DIMSTYLE
5
A
100
AcDbSymbolTable
70
1
0
ENDTAB
0
TABLE
2
BLOCK_RECORD
5
1
100
AcDbSymbolTable
70
1
0
BLOCK_RECORD
5
1F
100
AcDbSymbolTableRecord
100
AcDbBlockTableRecord
2
*MODEL_SPACE
0
BLOCK_RECORD
5
1B
100
AcDbSymbolTableRecord
100
AcDbBlockTableRecord
2
*PAPER_SPACE
0
ENDTAB
0
ENDSEC
0
SECTION
2
BLOCKS
0
BLOCK
5
20
100
AcDbEntity
100
AcDbBlockBegin
2
*MODEL_SPACE
0
ENDBLK
5
21
100
AcDbEntity
100
AcDbBlockEnd
0
BLOCK
5
1C
100
AcDbEntity
100
AcDbBlockBegin
2
*PAPER_SPACE
0
ENDBLK
5
1D
100
AcDbEntity
100
AcDbBlockEnd
0
ENDSEC
0
SECTION
2
ENTITIES
0
LWPOLYLINE
5
100
100
AcDbEntity
8
0
100
AcDbPolyline
90
4
70
1
43
0.0
10
-0.01941235496272526
20
0.016820911649973899
10
-0.01941235496272526
20
-0.029179088350026101
10
-0.10641235496272526
20
-0.029179088350026101
10
-0.10641235496272526
20
0.016820911649973899
0
LWPOLYLINE
5
101
100
AcDbEntity
8
0
100
AcDbPolyline
90
4
70
1
43
0.0
10
0.10240857403571837
20
-0.003728239283252428
10
0.10240857403571837
20
-0.028728239283252428
10
0.03040857403571838
20
-0.028728239283252428
10
0.03040857403571838
20
-0.003728239283252428
0
LWPOLYLINE
5
102
100
AcDbEntity
8
0
100
AcDbPolyline
90
28
70
1
43
0.0
10
-0.083500000000000005
20
0.056000000000000008
10
-0.127
20
0.056000000000000008
10
-0.127
20
-0.058999999999999997
10
0.127
20
-0.058999999999999997
10
0.127
20
0.056000000000000008
10
0.083500000000000005
20
0.056000000000000008
10
0.083500000000000005
20
0.049500000000000002
42
-0.41421356237309509
10
0.082500000000000004
20
0.048500000000000008
10
0.076200000000000004
20
0.048500000000000008
10
0.07619999999999999
20
0.043999999999999997
42
-0.99999999999999989
10
0.067799999999999999
20
0.043999999999999997
10
0.060200000000000004
20
0.043999999999999997
42
-0.99999999999999989
10
0.051800000000000006
20
0.043999999999999997
10
0.051799999999999999
20
0.048500000000000008
10
0.045499999999999999
20
0.048500000000000008
42
-0.41421356237309509
10
0.044500000000000005
20
0.049500000000000002
10
0.044500000000000005
20
0.056000000000000008
10
-0.044500000000000005
20
0.056000000000000008
10
-0.044500000000000005
20
0.049500000000000002
42
-0.41421356237309509
10
-0.045499999999999999
20
0.048500000000000008
10
-0.051799999999999999
20
0.048500000000000008
10
-0.051800000000000006
20
0.043999999999999997
42
-0.99999999999999989
10
-0.060200000000000004
20
0.043999999999999997
10
-0.067799999999999999
20
0.043999999999999997
42
-0.99999999999999989
10
-0.07619999999999999
20
0.043999999999999997
10
-0.076200000000000004
20
0.048500000000000008
10
-0.082500000000000004
20
0.048500000000000008
42
-0.41421356237309509
10
-0.083500000000000005
20
0.049500000000000002
0
CIRCLE
5
103
100
AcDbEntity
8
0
100
AcDbCircle
10
0
20
0.02904635587607059
30
0
40
0.0115
210
0
220
0
230
-1
0
CIRCLE
5
104
100
AcDbEntity
8
0
100
AcDbCircle
10
0
20
0.052000000000000005
30
0
40
0.0022000000000000001
210
0
220
0
230
-1
0
CIRCLE
5
105
100
AcDbEntity
8
0
100
AcDbCircle
10
0
20
-0.052000000000000005
30
0
40
0.0022000000000000001
210
0
220
0
230
-1
0
CIRCLE
5
106
100
AcDbEntity
8
0
100
AcDbCircle
10
-0.12
20
0.035999999999999997
30
0
40
0.0022000000000000001
210
0
220
0
230
-1
0
CIRCLE
5
107
100
AcDbEntity
8
0
100
AcDbCircle
10
-0.12
20
-0.035999999999999997
30
0
40
0.0022000000000000001
210
0
220
0
230
-1
0
CIRCLE
5
108
100
AcDbEntity
8
0
100
AcDbCircle
10
0.12
20
0.035999999999999997
30
0
40
0.0022000000000000001
210
0
220
0
230
-1
0
CIRCLE
5
109
100
AcDbEntity
8
0
100
AcDbCircle
10
0.12
20
-0.035999999999999997
30
0
40
0.0022000000000000001
210
0
220
0
230
-1
0
ENDSEC
0
SECTION
2
OBJECTS
0
DICTIONARY
5
C
100
AcDbDictionary
3
ACAD_GROUP
350
D
3
ACAD_MLINESTYLE
350
17
0
DICTIONARY
5
D
100
AcDbDictionary
0
DICTIONARY
5
1A
330
C
100
AcDbDictionary
0
DICTIONARY
5
17
100
AcDbDictionary
0
ENDSEC
0
EOF
