0
SECTION
2
HEADER
9
$INSUNITS
70
6
9
$ACADVER
1
AC1014
9
$HANDSEED
5
FFFF
0
ENDSEC
0
SECTION
2
TABLES
0
TABLE
2
VPORT
5
8
100
AcDbSymbolTable
0
ENDTAB
0
TABLE
2
LTYPE
5
5
100
AcDbSymbolTable
0
LTYPE
5
14
100
AcDbSymbolTableRecord
100
AcDbLinetypeTableRecord
2
BYBLOCK
70
0
0
LTYPE
5
15
100
AcDbSymbolTableRecord
100
AcDbLinetypeTableRecord
2
BYLAYER
70
0
0
ENDTAB
0
TABLE
2
LAYER
5
2
100
AcDbSymbolTable
70
2
0
LAYER
5
50
100
AcDbSymbolTableRecord
100
AcDbLayerTableRecord
2
0
70
0
6
CONTINUOUS
0
ENDTAB
0
TABLE
2
STYLE
5
3
100
AcDbSymbolTable
70
1
0
STYLE
5
11
100
AcDbSymbolTableRecord
100
AcDbTextStyleTableRecord
2
STANDARD
70
0
0
ENDTAB
0
TABLE
2
VIEW
5
6
100
AcDbSymbolTable
70
0
0
ENDTAB
0
TABLE
2
UCS
5
7
100
AcDbSymbolTable
70
0
0
ENDTAB
0
TABLE
2
APPID
5
9
100
AcDbSymbolTable
70
2
0
APPID
5
12
100
AcDbSymbolTableRecord
100
AcDbRegAppTableRecord
2
ACAD
70
0
0
ENDTAB
0
TABLE
2
DIMSTYLE
5
A
100
AcDbSymbolTable
70
1
0
ENDTAB
0
TABLE
2
BLOCK_RECORD
5
1
100
AcDbSymbolTable
70
1
0
BLOCK_RECORD
5
1F
100
AcDbSymbolTableRecord
100
AcDbBlockTableRecord
2
*MODEL_SPACE
0
BLOCK_RECORD
5
1B
100
AcDbSymbolTableRecord
100
AcDbBlockTableRecord
2
*PAPER_SPACE
0
ENDTAB
0
ENDSEC
0
SECTION
2
BLOCKS
0
BLOCK
5
20
100
AcDbEntity
100
AcDbBlockBegin
2
*MODEL_SPACE
0
ENDBLK
5
21
100
AcDbEntity
100
AcDbBlockEnd
0
BLOCK
5
1C
100
AcDbEntity
100
AcDbBlockBegin
2
*PAPER_SPACE
0
ENDBLK
5
1D
100
AcDbEntity
100
AcDbBlockEnd
0
ENDSEC
0
SECTION
2
ENTITIES
0
LWPOLYLINE
5
100
100
AcDbEntity
8
0
100
AcDbPolyline
90
28
70
1
43
0.0
10
0.11550000000000001
20
0.061000000000001005
42
0.41421356237316032
10
0.12
20
0.056499999999999995
10
0.127
20
0.056500000000000002
10
0.127
20
-0.063500000000000001
10
0.12
20
-0.063500000000000001
42
0.99999999999999989
10
0.12
20
-0.072499999999999995
10
0.127
20
-0.072499999999999995
10
0.127
20
-0.1275
10
0.12
20
-0.12750000000000003
42
0.99999999999999989
10
0.12
20
-0.13650000000000001
10
0.127
20
-0.13650000000000001
10
0.127
20
-0.16400000000000003
10
0.017000000000000001
20
-0.16400000000000003
42
0.99999999999999989
10
-0.016999999999999994
20
-0.16400000000000003
10
-0.127
20
-0.16400000000000003
10
-0.127
20
-0.13650000000000001
10
-0.12
20
-0.13650000000000001
42
0.99999999999999989
10
-0.12
20
-0.1275
10
-0.127
20
-0.1275
10
-0.127
20
-0.072499999999999995
10
-0.12
20
-0.072500000000000009
42
0.99999999999999989
10
-0.12
20
-0.063500000000000001
10
-0.127
20
-0.063500000000000001
10
-0.127
20
0.056499999999994999
10
-0.12
20
0.056499999999999995
42
0.4142135623732251
10
-0.11550000000000001
20
0.061000000000001997
10
-0.11550000000000001
20
0.068000000000000005
10
0.11550000000000001
20
0.068000000000000005
0
CIRCLE
5
101
100
AcDbEntity
8
0
100
AcDbCircle
10
-0.070421510830401199
20
-0.11905769751268153
30
0
40
0.0058878777541608507
210
0
220
0
230
-1
0
CIRCLE
5
102
100
AcDbEntity
8
0
100
AcDbCircle
10
-0.040142541472113498
20
-0.010053407822845957
30
0
40
0.0046200240432379578
210
0
220
0
230
-1
0
CIRCLE
5
103
100
AcDbEntity
8
0
100
AcDbCircle
10
0.07908090037614432
20
0.020225561535441729
30
0
40
0.0062076502709438233
210
0
220
0
230
-1
0
CIRCLE
5
104
100
AcDbEntity
8
0
100
AcDbCircle
10
0.08967853965154482
20
-0.03427658330947609
30
0
40
0.0023937627093659052
210
0
220
0
230
-1
0
CIRCLE
5
105
100
AcDbEntity
8
0
100
AcDbCircle
10
-0.015540878868504785
20
0.030066226576885163
30
0
40
0.0026494098188501523
210
0
220
0
230
-1
0
CIRCLE
5
106
100
AcDbEntity
8
0
100
AcDbCircle
10
-0.089724353796309511
20
-0.065691014018699506
30
0
40
0.0026494098188501879
210
0
220
0
230
-1
0
CIRCLE
5
107
100
AcDbEntity
8
0
100
AcDbCircle
10
-0.040142541472113498
20
-0.089914189505329645
30
0
40
0.0045418454037431388
210
0
220
0
230
-1
0
CIRCLE
5
108
100
AcDbEntity
8
0
100
AcDbCircle
10
-0.070043023713422678
20
0.020604048652420333
30
0
40
0.0061029213829837123
210
0
220
0
230
-1
0
CIRCLE
5
109
100
AcDbEntity
8
0
100
AcDbCircle
10
0.039718240210370188
20
-0.010053407822845957
30
0
40
0.0042499999999999986
210
0
220
0
230
-1
0
CIRCLE
5
110
100
AcDbEntity
8
0
100
AcDbCircle
10
0.08967853965154482
20
-0.066069501135678124
30
0
40
0.0022709227018715694
210
0
220
0
230
-1
0
CIRCLE
5
111
100
AcDbEntity
8
0
100
AcDbCircle
10
0.01587355184071864
20
0.030066226576885163
30
0
40
0.0025000000000000001
210
0
220
0
230
-1
0
CIRCLE
5
112
100
AcDbEntity
8
0
100
AcDbCircle
10
-0.089724353796309511
20
-0.033519609075518889
30
0
40
0.0026494098188501523
210
0
220
0
230
-1
0
CIRCLE
5
113
100
AcDbEntity
8
0
100
AcDbCircle
10
0.039718240210370188
20
-0.089914189505329645
30
0
40
0.0045418454037431388
210
0
220
0
230
-1
0
CIRCLE
5
114
100
AcDbEntity
8
0
100
AcDbCircle
10
-0.064000000000000001
20
0.063
30
0
40
0.0022000000000000001
210
0
220
0
230
-1
0
CIRCLE
5
115
100
AcDbEntity
8
0
100
AcDbCircle
10
0.064000000000000001
20
0.063
30
0
40
0.0022000000000000001
210
0
220
0
230
-1
0
ENDSEC
0
SECTION
2
OBJECTS
0
DICTIONARY
5
C
100
AcDbDictionary
3
ACAD_GROUP
350
D
3
ACAD_MLINESTYLE
350
17
0
DICTIONARY
5
D
100
AcDbDictionary
0
DICTIONARY
5
1A
330
C
100
AcDbDictionary
0
DICTIONARY
5
17
100
AcDbDictionary
0
ENDSEC
0
EOF
