0
SECTION
2
HEADER
9
$INSUNITS
70
6
9
$ACADVER
1
AC1014
9
$HANDSEED
5
FFFF
0
ENDSEC
0
SECTION
2
TABLES
0
TABLE
2
VPORT
5
8
100
AcDbSymbolTable
0
ENDTAB
0
TABLE
2
LTYPE
5
5
100
AcDbSymbolTable
0
LTYPE
5
14
100
AcDbSymbolTableRecord
100
AcDbLinetypeTableRecord
2
BYBLOCK
70
0
0
LTYPE
5
15
100
AcDbSymbolTableRecord
100
AcDbLinetypeTableRecord
2
BYLAYER
70
0
0
ENDTAB
0
TABLE
2
LAYER
5
2
100
AcDbSymbolTable
70
2
0
LAYER
5
50
100
AcDbSymbolTableRecord
100
AcDbLayerTableRecord
2
0
70
0
6
CONTINUOUS
0
ENDTAB
0
TABLE
2
STYLE
5
3
100
AcDbSymbolTable
70
1
0
STYLE
5
11
100
AcDbSymbolTableRecord
100
AcDbTextStyleTableRecord
2
STANDARD
70
0
0
ENDTAB
0
TABLE
2
VIEW
5
6
100
AcDbSymbolTable
70
0
0
ENDTAB
0
TABLE
2
UCS
5
7
100
AcDbSymbolTable
70
0
0
ENDTAB
0
TABLE
2
APPID
5
9
100
AcDbSymbolTable
70
2
0
APPID
5
12
100
AcDbSymbolTableRecord
100
AcDbRegAppTableRecord
2
ACAD
70
0
0
ENDTAB
0
TABLE
2
DIMSTYLE
5
A
100
AcDbSymbolTable
70
1
0
ENDTAB
0
TABLE
2
BLOCK_RECORD
5
1
100
AcDbSymbolTable
70
1
0
BLOCK_RECORD
5
1F
100
AcDbSymbolTableRecord
100
AcDbBlockTableRecord
2
*MODEL_SPACE
0
BLOCK_RECORD
5
1B
100
AcDbSymbolTableRecord
100
AcDbBlockTableRecord
2
*PAPER_SPACE
0
ENDTAB
0
ENDSEC
0
SECTION
2
BLOCKS
0
BLOCK
5
20
100
AcDbEntity
100
AcDbBlockBegin
2
*MODEL_SPACE
0
ENDBLK
5
21
100
AcDbEntity
100
AcDbBlockEnd
0
BLOCK
5
1C
100
AcDbEntity
100
AcDbBlockBegin
2
*PAPER_SPACE
0
ENDBLK
5
1D
100
AcDbEntity
100
AcDbBlockEnd
0
ENDSEC
0
SECTION
2
ENTITIES
0
LWPOLYLINE
5
100
100
AcDbEntity
8
0
100
AcDbPolyline
90
28
70
1
43
0.0
10
-0.11200000000004151
20
0.083499999999990124
10
-0.10550000000004151
20
0.083499999999989749
42
-0.4142135623731002
10
-0.10450000000004156
20
0.082499999999989679
10
-0.10450000000004192
20
0.076249999999989687
10
-0.10000000000004193
20
0.076249999999989423
42
-0.99999999999999989
10
-0.10000000000004242
20
0.06774999999998943
10
-0.10000000000004285
20
0.060249999999989437
42
-0.99999999999999989
10
-0.10000000000004335
20
0.051749999999989436
10
-0.10450000000004335
20
0.051749999999989686
10
-0.10450000000004371
20
0.045499999999989688
42
-0.41421356237309759
10
-0.10550000000004378
20
0.044499999999989756
10
-0.11200000000004379
20
0.044499999999990138
10
-0.11200000000004896
20
-0.044500000000009872
10
-0.10550000000004897
20
-0.044500000000010233
42
-0.41421356237309243
10
-0.10450000000004903
20
-0.04550000000001031
10
-0.1045000000000494
20
-0.051750000000010309
10
-0.10000000000004938
20
-0.051750000000010579
42
-0.99999999999999989
10
-0.10000000000004988
20
-0.060250000000010573
10
-0.10000000000005031
20
-0.067750000000010566
42
-0.99999999999999989
10
-0.10000000000005081
20
-0.076250000000010559
10
-0.10450000000005083
20
-0.07625000000001031
10
-0.10450000000005119
20
-0.082500000000010329
42
-0.41421356237308982
10
-0.10550000000005123
20
-0.083500000000010247
10
-0.11200000000005124
20
-0.083500000000009872
10
-0.11200000000005378
20
-0.12700000000000988
10
0.0029999999999462193
20
-0.1270000000000166
10
0.0029999999999610338
20
0.1269999999999834
10
-0.11200000000003897
20
0.12699999999999012
0
CIRCLE
5
101
100
AcDbEntity
8
0
100
AcDbCircle
10
-0.10771000000004638
20
-1.0124050043634322e-14
30
-7.2164496600635178e-18
40
0.0022000000000000001
210
1.6156953683545877e-43
220
2.7702532234923946e-30
230
1
0
CIRCLE
5
102
100
AcDbEntity
8
0
100
AcDbCircle
10
-0.0042900000000463661
20
-1.61558168719598e-14
30
-7.2164496600635178e-18
40
0.0022000000000000001
210
1.6156953683545877e-43
220
2.7702532234923946e-30
230
1
0
CIRCLE
5
103
100
AcDbEntity
8
0
100
AcDbCircle
10
-0.092000000000053359
20
-0.12000000000001106
30
-7.2164496600635178e-18
40
0.0022000000000000001
210
1.6156953683545877e-43
220
2.7702532234923946e-30
230
1
0
CIRCLE
5
104
100
AcDbEntity
8
0
100
AcDbCircle
10
-0.020000000000053371
20
-0.12000000000001525
30
-7.2164496600635178e-18
40
0.0022000000000000001
210
1.6156953683545877e-43
220
2.7702532234923946e-30
230
1
0
CIRCLE
5
105
100
AcDbEntity
8
0
100
AcDbCircle
10
-0.092000000000039356
20
0.11999999999998895
30
-7.2164496600635178e-18
40
0.0022000000000000001
210
1.6156953683545877e-43
220
2.7702532234923946e-30
230
1
0
CIRCLE
5
106
100
AcDbEntity
8
0
100
AcDbCircle
10
-0.020000000000039372
20
0.11999999999998476
30
-7.2164496600635178e-18
40
0.0022000000000000001
210
1.6156953683545877e-43
220
2.7702532234923946e-30
230
1
0
ENDSEC
0
SECTION
2
OBJECTS
0
DICTIONARY
5
C
100
AcDbDictionary
3
ACAD_GROUP
350
D
3
ACAD_MLINESTYLE
350
17
0
DICTIONARY
5
D
100
AcDbDictionary
0
DICTIONARY
5
1A
330
C
100
AcDbDictionary
0
DICTIONARY
5
17
100
AcDbDictionary
0
ENDSEC
0
EOF
